<svg id="fi_9413092" height="512" viewBox="0 0 60 60" width="512" xmlns="http://www.w3.org/2000/svg"><path d="m20.422 51.6a.5.5 0 0 1 -.262-.927l2.323-1.424-3.258 1.882a.5.5 0 0 1 -.514-.858l7.944-4.92-8.89 5.132a.5.5 0 0 1 -.515-.856l10.9-6.8-11.91 6.876a.5.5 0 0 1 -.513-.857l9.484-5.884-10.34 5.974a.5.5 0 0 1 -.516-.857l13.432-8.428-14.433 8.332a.5.5 0 0 1 -.512-.858l7.415-4.57-8.044 4.643a.5.5 0 0 1 -.516-.856l13.684-8.585-14.553 8.4a.5.5 0 0 1 -.517-.854l16.051-10.173-17.01 9.821a.5.5 0 0 1 -.516-.856l13.464-8.449-14.2 8.2a.5.5 0 0 1 -.514-.858l10.523-6.547-11.072 6.392a.5.5 0 0 1 -.516-.856l12.407-7.779-13 7.507a.5.5 0 0 1 -.521-.854l17.139-11.025-17.991 10.387a.5.5 0 0 1 -.52-.855l13.83-8.83-14.448 8.342a.5.5 0 0 1 -.512-.858l1.095-.672-1.233.712a.5.5 0 0 1 -.512-.859l.218-.134-.322.185a.5.5 0 0 1 -.522-.851l11.831-7.7-12.16 7.015a.5.5 0 0 1 -.519-.855l6.029-3.834-4.788 2.767a.5.5 0 0 1 -.673-.167.5.5 0 0 1 .142-.679l9.982-6.782-5.982 3.453a.5.5 0 0 1 -.543-.838l6.473-4.688a.5.5 0 0 1 -.192-.93l7.291-4.209a.5.5 0 0 1 .542.838l-5.7 4.126 9.438-5.445a.5.5 0 0 1 .531.846l-9.983 6.787 13.214-7.629a.5.5 0 0 1 .518.854l-6.031 3.835 8.123-4.689a.5.5 0 0 1 .522.851l-11.829 7.7 14.814-8.553a.5.5 0 0 1 .511.858l-.2.122 1.7-.98a.5.5 0 0 1 .512.858l-1.102.673 2.659-1.535a.5.5 0 0 1 .519.854l-13.83 8.83 16.592-9.576a.5.5 0 0 1 .521.854l-17.152 11.035 18.9-10.912a.5.5 0 0 1 .515.856l-12.4 7.769 13.5-7.794a.5.5 0 0 1 .513.857l-10.514 6.545 11.422-6.594a.5.5 0 0 1 .515.857l-13.455 8.442 14.441-8.337a.5.5 0 0 1 .517.855l-16.063 10.18 17.144-9.9a.5.5 0 0 1 .516.857l-13.686 8.588 14.532-8.388a.5.5 0 0 1 .512.858l-7.4 4.563 7.908-4.564a.5.5 0 0 1 .516.857l-13.415 8.415 14.139-8.164a.5.5 0 0 1 .514.857l-9.506 5.9 10.009-5.779a.5.5 0 0 1 .515.857l-10.908 6.8 11.436-6.6a.5.5 0 0 1 .514.857l-7.924 4.908 8.306-4.795a.5.5 0 0 1 .512.859l-2.313 1.417 2.524-1.457a.5.5 0 0 1 .52.853l-14.04 9.008 14.675-8.473a.5.5 0 0 1 .516.856l-7.324 4.593 7.622-4.4a.5.5 0 0 1 .515.857l-6.1 3.832 6.323-3.651a.5.5 0 0 1 .526.85l-11.9 7.858 11.141-6.435a.5.5 0 0 1 .527.849l-9.3 6.2 5.786-3.341a.5.5 0 0 1 .525.85l-3.178 2.082a.5.5 0 0 1 .235.933l-13.988 8.08a.5.5 0 0 1 -.524-.85l2.078-1.362-3.832 2.212a.5.5 0 0 1 -.527-.848l9.306-6.208-12.227 7.056a.5.5 0 0 1 -.525-.849l11.9-7.857-15.075 8.707a.5.5 0 0 1 -.515-.856l6.107-3.836-8.129 4.692a.5.5 0 0 1 -.515-.856l7.322-4.591-9.437 5.447a.5.5 0 0 1 -.519-.853l14.032-9-17.074 9.854a.5.5 0 0 1 -.25.065z" fill="#e8edf4"></path><path d="m29.445 53.456a.5.5 0 0 1 -.281-.913l7.764-5.293-10.245 5.915a.5.5 0 0 1 -.519-.854l2.7-1.722-3.964 2.289a.5.5 0 0 1 -.519-.854l5.6-3.578-6.927 4a.5.5 0 0 1 -.523-.851l10.521-6.85-12.171 7.025a.5.5 0 0 1 -.525-.851l13.366-8.755-14.743 8.512a.5.5 0 0 1 -.522-.853l12.866-8.3-13.8 7.967a.5.5 0 0 1 -.514-.857l5.829-3.633-6.238 3.6a.5.5 0 0 1 -.521-.854l13.521-8.683-14.183 8.186a.5.5 0 0 1 -.517-.855l9.715-6.115-10.054 5.805a.5.5 0 0 1 -.52-.854l13.764-8.821-14.167 8.179a.5.5 0 0 1 -.517-.856l10.51-6.632-10.66 6.154a.5.5 0 0 1 -.515-.857l6.83-4.257-6.807 3.93a.5.5 0 0 1 -.519-.854l12.32-7.864-12.318 7.112a.5.5 0 0 1 -.512-.859l.21-.129a.5.5 0 0 1 -.462-.883l5.736-3.581-5.452 3.146a.5.5 0 0 1 -.517-.854l9.01-5.717-8.66 5a.5.5 0 0 1 -.513-.857l1.17-.73-.691.4a.5.5 0 0 1 -.521-.852l9.427-6.089-8.807 5.085a.5.5 0 0 1 -.52-.855l5.474-3.489-4.726 2.728a.5.5 0 0 1 -.516-.856l.721-.454a.5.5 0 0 1 -.427-.891l8.1-5.521-6.731 3.887a.5.5 0 0 1 -.545-.837l6.743-4.921-4.491 2.593a.5.5 0 0 1 -.575-.813l3.862-3.31a.5.5 0 0 1 -.033-.883l3.3-1.907a.5.5 0 0 1 .575.812l-2.964 2.54 7.919-4.571a.5.5 0 0 1 .545.837l-6.741 4.919 10.269-5.929a.5.5 0 0 1 .531.846l-8.106 5.522 10.588-6.112a.5.5 0 0 1 .516.855l-.429.266 1.486-.857a.5.5 0 0 1 .52.854l-5.472 3.493 6.78-3.914a.5.5 0 0 1 .522.853l-9.419 6.084 10.922-6.303a.5.5 0 0 1 .513.857l-1.183.734 1.812-1.048a.5.5 0 0 1 .518.854l-9.009 5.716 9.781-5.646a.5.5 0 0 1 .515.856l-5.746 3.588 6.227-3.595a.5.5 0 0 1 .512.859l-.081.05.324-.187a.5.5 0 0 1 .519.855l-12.32 7.863 12.939-7.466a.5.5 0 0 1 .515.856l-6.85 4.271 7.12-4.11a.5.5 0 0 1 .517.855l-10.5 6.623 10.8-6.233a.5.5 0 0 1 .52.853l-13.766 8.822 14.09-8.137a.5.5 0 0 1 .517.855l-9.713 6.114 9.771-5.641a.5.5 0 0 1 .521.853l-13.509 8.677 13.569-7.834a.5.5 0 0 1 .515.858l-5.832 3.634 5.626-3.248a.5.5 0 0 1 .522.853l-12.867 8.305 12.653-7.3a.5.5 0 0 1 .524.85l-13.369 8.752 12.967-7.485a.5.5 0 0 1 .522.852l-10.513 6.844 9.884-5.706a.5.5 0 0 1 .52.854l-5.605 3.584 4.843-2.8a.5.5 0 0 1 .519.854l-2.7 1.718 1.822-1.043a.5.5 0 0 1 .531.846l-7.767 5.3 6.356-3.669a.5.5 0 0 1 .675.169.5.5 0 0 1 -.149.681l-2.1 1.39.615-.354a.5.5 0 0 1 .541.839l-2.8 2 .472-.272a.5.5 0 0 1 .5.865l-9.361 5.405a.5.5 0 0 1 -.541-.839l2.8-2-5.684 3.272a.5.5 0 0 1 -.527-.85l2.1-1.393-3.983 2.3a.494.494 0 0 1 -.245.066z" fill="#39bcea"></path><path d="m28.838 45.4a.5.5 0 0 1 -.294-.905l3.144-2.28-4.626 2.67a.5.5 0 0 1 -.545-.836l5.768-4.231-7.185 4.146a.5.5 0 0 1 -.532-.846l3.709-2.518-4.369 2.522a.5.5 0 0 1 -.534-.845l5.485-3.78-6.094 3.519a.5.5 0 0 1 -.539-.841l7.3-5.158-7.832 4.521a.5.5 0 0 1 -.532-.845l5.467-3.732-5.6 3.236a.5.5 0 0 1 -.536-.842l6.237-4.34-6.2 3.578a.5.5 0 0 1 -.605-.785l.5-.507-.094.054a.5.5 0 0 1 -.608-.084.5.5 0 0 1 -.068-.611l.523-.852a.5.5 0 0 1 -.428-.093.5.5 0 0 1 -.17-.534l.314-1.065a.374.374 0 0 1 -.04-.058.5.5 0 0 1 .181-.684l.265-.153a.5.5 0 0 1 .73.574l-.137.469.47-.272a.5.5 0 0 1 .676.7l-.5.817 1.626-.938a.5.5 0 0 1 .605.785l-.5.506 13.218-7.63a.5.5 0 0 1 .535.842l-6.24 4.326 6.834-3.945a.5.5 0 0 1 .532.846l-5.463 3.729 5.76-3.326a.5.5 0 0 1 .539.841l-7.3 5.16 7.507-4.334a.5.5 0 0 1 .535.845l-5.485 3.784 5.34-3.082a.5.5 0 0 1 .531.846l-3.706 2.518 3.305-1.907a.5.5 0 0 1 .546.836l-5.772 4.232 5.032-2.9a.5.5 0 0 1 .544.837l-3.147 2.282 1.995-1.162a.5.5 0 0 1 .584.8l-2.8 2.509a.5.5 0 0 1 .315.929l-3.828 2.21a.5.5 0 0 1 -.584-.8l2.659-2.386-6.172 3.562a.493.493 0 0 1 -.246.076z" fill="#2d386b"></path><path d="m28.557 31.621a.5.5 0 0 1 -.356-.851l2.65-2.674-1.6.921a.5.5 0 0 1 -.615-.775l.812-.869-.5.285a.489.489 0 0 1 -.452.025.5.5 0 0 1 -.286-.351l-.3-1.369-.024.014a.5.5 0 0 1 -.5-.866l.617-.356a.5.5 0 0 1 .452-.025.5.5 0 0 1 .286.351l.3 1.369 2.808-1.621a.5.5 0 0 1 .616.775l-.814.87 1.923-1.11a.5.5 0 0 1 .605.784l-2.649 2.673 4.046-2.335a.5.5 0 0 1 .5.866l-7.278 4.2a.489.489 0 0 1 -.241.069z" fill="#2d386b"></path><g fill="#262626"><path d="m6.749 43.349c8.251 7.774 19.412 12.143 30.762 9.051 7.121-1.938 22.073-10.939 21.789-18.839-11.271-17.973-36.822-22.984-52.068-7.141-8.221 7.938-9.27 8.71-.483 16.929zm51.214-9.2c0 5.6-9.9 12.122-14.508 14.957 8-6.876 8.274-20.264.843-27.594a43.9 43.9 0 0 1 13.665 12.64zm-22.892-16.17c25.167 8.138 11.768 44.037-14.765 32.583-17.492-11.362-5.948-38.509 14.765-32.583zm-32.914 15.764a42.775 42.775 0 0 1 14.343-12.752c-7.726 6.84-8.333 19.861-1.023 27.284-4.158-2.818-13.948-9.223-13.32-14.532z"></path><path d="m19.607 32.47c-2.9 10.451 11.208 17.539 18.247 9.613 7.346-7.463-.646-20.083-10.572-17.22-1.865.5 3.034 3.654-.007 7.092-3.362 4.111-6.428-1.49-7.668.515zm8.219.556a5.439 5.439 0 0 0 .74-7.4 9.593 9.593 0 0 1 10.7 9.432c-.353 13.35-19.9 11.557-18.412-1.44a5.94 5.94 0 0 0 6.972-.592z"></path><path d="m29.276 7.194c.378 1.383-1.147 7.852 1.448 5.612-.378-1.383 1.147-7.852-1.448-5.612z"></path><path d="m17.821 9.644c1.088 1.292 1.757 7.094 3.9 5.087-1.084-1.292-1.754-7.094-3.9-5.087z"></path><path d="m41.574 9.126c-1.934.947-2.1 4.129-3.293 5.911.088.5 1.263.15 1.438-.224.166-1.163 3.406-5.734 1.855-5.687z"></path></g></svg>
